<svg xmlns="http://www.w3.org/2000/svg" width="540" height="132" viewBox="0 0 540 132" role="img" aria-label="Shivansh Tour and Travels logo">
  <defs>
    <linearGradient id="bg" x1="0" y1="0" x2="0" y2="1">
      <stop offset="0%" stop-color="#0E3858" />
      <stop offset="100%" stop-color="#072237" />
    </linearGradient>
    <linearGradient id="gold" x1="0" y1="0" x2="1" y2="1">
      <stop offset="0%" stop-color="#F7C96A" />
      <stop offset="100%" stop-color="#E6A93E" />
    </linearGradient>
  </defs>
  <rect x="0" y="0" width="540" height="132" fill="none"/>
  <g transform="translate(10 16)">
    <rect x="0" y="0" width="100" height="100" rx="24" fill="url(#bg)"/>
    <path d="M20 66c8 13 19 20 34 22 12 2 21 0 30-6" fill="none" stroke="#ffffff" stroke-opacity="0.9" stroke-width="6" stroke-linecap="round"/>
    <path d="M24 58h52l10 13h-68zM30 54l10-12h24l10 12" fill="url(#gold)"/>
    <circle cx="36" cy="71" r="7" fill="#0b1620"/>
    <circle cx="72" cy="71" r="7" fill="#0b1620"/>
  </g>
  <g transform="translate(128 28)">
    <text x="0" y="38" font-family="Poppins, Montserrat, 'Segoe UI', Arial, sans-serif" font-size="42" font-weight="800" fill="#0E3858">Shivansh</text>
    <text x="0" y="76" font-family="Poppins, Montserrat, 'Segoe UI', Arial, sans-serif" font-size="30" font-weight="600" fill="#E6A93E">Tour &amp; Travels</text>
  </g>
</svg>
